<svg width="622" height="603" viewBox="0 0 622 603" fill="none" xmlns="http://www.w3.org/2000/svg">
<path d="M338.954 227.866C339.713 230.19 339.767 232.688 339.107 235.043C338.447 237.398 337.104 239.504 335.248 241.096C333.391 242.687 331.104 243.693 328.676 243.985C326.248 244.277 323.788 243.843 321.607 242.738C319.426 241.632 317.621 239.905 316.421 237.773C315.222 235.642 314.681 233.204 314.867 230.765C315.053 228.327 315.958 225.998 317.467 224.074C318.976 222.15 321.022 220.716 323.346 219.955C324.89 219.448 326.519 219.251 328.14 219.375C329.76 219.499 331.34 219.941 332.79 220.675C334.239 221.41 335.53 222.423 336.587 223.657C337.645 224.891 338.449 226.321 338.954 227.866Z" fill="#FFDCDC"/>
<path d="M335.88 224.503C335.475 225.122 324.609 217.902 313.123 206.822C301.638 195.741 292.606 186.781 293.011 186.257C293.416 185.733 303.615 193.787 315.006 204.844C326.396 215.901 336.404 223.883 335.88 224.503Z" fill="#FFDCDC"/>
<path d="M310.504 166.148C311.219 166.148 310.742 173.106 305.524 179.516C300.305 185.926 293.609 187.904 293.49 187.213C293.371 186.522 298.756 183.639 303.403 177.681C308.05 171.724 309.67 165.981 310.504 166.148Z" fill="#FFDCDC"/>
<path d="M319.2 175.536C319.939 175.536 319.748 182.422 314.196 188.308C308.644 194.194 301.805 194.932 301.828 194.218C301.852 193.503 307.428 191.715 312.218 186.449C317.008 181.183 318.461 175.393 319.2 175.536Z" fill="#FFDCDC"/>
<path d="M535.066 41.0926C535.451 42.2703 535.479 43.5359 535.146 44.7295C534.813 45.9231 534.133 46.9911 533.193 47.7984C532.252 48.6057 531.094 49.116 529.863 49.265C528.633 49.414 527.386 49.1948 526.28 48.6353C525.175 48.0757 524.26 47.2009 523.651 46.1214C523.042 45.0418 522.767 43.8061 522.861 42.5704C522.954 41.3346 523.412 40.1543 524.176 39.1787C524.941 38.2031 525.977 37.476 527.154 37.0893C527.937 36.8324 528.762 36.7321 529.583 36.7942C530.404 36.8564 531.205 37.0797 531.94 37.4515C532.674 37.8233 533.329 38.3362 533.865 38.961C534.401 39.5857 534.809 40.3101 535.066 41.0926Z" fill="#FFDCDC"/>
<path d="M533.663 39.4245C529.386 37.041 525.497 34.0197 522.13 30.4648C518.502 27.2237 515.102 23.7364 511.955 20.0276C512.217 19.7179 517.316 23.8641 523.083 29.5592C528.849 35.2544 533.782 39.0909 533.663 39.4245Z" fill="#FFDCDC"/>
<path d="M520.65 9.82835C520.561 12.3014 519.672 14.6788 518.116 16.6036C516.561 18.5285 514.423 19.897 512.024 20.5038C511.857 20.1225 514.693 18.6927 517.052 15.7379C519.411 12.7831 520.245 9.73303 520.65 9.82835Z" fill="#FFDCDC"/>
<path d="M525.083 14.5956C525.465 14.5956 525.369 18.0747 522.558 21.0533C521.826 22.0144 520.876 22.7879 519.786 23.3099C518.696 23.832 517.498 24.0876 516.291 24.0558C516.291 23.6507 519.126 22.7928 521.533 20.124C523.94 17.4551 524.678 14.5003 525.083 14.5956Z" fill="#FFDCDC"/>
<path d="M341.456 56.392C339.423 57.8016 337.018 58.5768 334.544 58.6197C332.071 58.6626 329.64 57.9712 327.56 56.633C325.479 55.2947 323.842 53.3697 322.855 51.1012C321.869 48.8327 321.577 46.3227 322.016 43.8883C322.456 41.4538 323.607 39.2044 325.325 37.4243C327.043 35.6442 329.25 34.4133 331.667 33.8872C334.084 33.3612 336.603 33.5635 338.905 34.4688C341.208 35.374 343.19 36.9415 344.601 38.973C346.489 41.7015 347.219 45.0674 346.629 48.3327C346.039 51.598 344.179 54.4962 341.456 56.392Z" fill="#FFDCDC"/>
<path d="M343.84 52.5312C342.696 52.15 346.223 39.3776 353.729 25.0325C361.235 10.6874 367.574 -0.416905 368.622 0.0120176C369.671 0.44094 365.048 12.8082 357.613 26.9865C350.179 41.1648 344.984 52.9125 343.84 52.5312Z" fill="#FFDCDC"/>
<path d="M400.385 25.1285C400.385 26.1293 389.924 26.0102 379.344 19.0521C374.746 16.1998 371.033 12.1238 368.621 7.28056C366.834 3.44408 367.287 0.656099 367.811 0.63227C368.335 0.608441 369.121 2.82453 371.29 5.7555C374.166 9.59025 377.71 12.8755 381.751 15.4539C391.211 21.7448 400.695 23.8179 400.385 25.1285Z" fill="#FFDCDC"/>
<path d="M373.219 81.5308C371.185 82.9371 368.778 83.7085 366.305 83.7477C363.832 83.7869 361.403 83.092 359.324 81.7509C357.246 80.4098 355.612 78.4826 354.628 76.213C353.645 73.9434 353.356 71.4332 353.799 68.9996C354.242 66.5661 355.396 64.3183 357.116 62.5406C358.836 60.7628 361.044 59.5348 363.462 59.0117C365.879 58.4886 368.397 58.6939 370.698 59.6017C372.999 60.5095 374.979 62.079 376.389 64.1118C377.325 65.4633 377.987 66.9861 378.334 68.5933C378.682 70.2005 378.71 71.8606 378.415 73.4784C378.121 75.0962 377.511 76.6401 376.619 78.0219C375.727 79.4036 374.572 80.596 373.219 81.5308Z" fill="#FFDCDC"/>
<path d="M375.628 77.67C374.46 77.2888 378.011 64.5164 385.517 50.1713C393.023 35.8262 399.362 24.7219 400.41 25.1508C401.459 25.5797 396.812 37.947 389.401 52.1253C381.99 66.3036 376.748 78.0513 375.628 77.67Z" fill="#FFDCDC"/>
<path d="M396.812 32.8972C396.812 34.041 386.922 34.5653 376.771 28.3935C366.62 22.2218 362.355 13.2621 363.379 12.8094C364.404 12.3566 369.813 19.267 379.011 24.7239C388.209 30.1807 396.931 31.6343 396.812 32.8972Z" fill="#FFDCDC"/>
<path d="M426.241 209.99C425.448 211.706 424.163 213.147 422.549 214.13C420.935 215.113 419.065 215.594 417.177 215.512C415.289 215.43 413.468 214.789 411.945 213.67C410.422 212.551 409.267 211.004 408.625 209.227C407.983 207.449 407.884 205.521 408.341 203.687C408.797 201.853 409.789 200.196 411.189 198.927C412.589 197.658 414.335 196.834 416.205 196.559C418.075 196.285 419.984 196.572 421.69 197.385C423.955 198.464 425.703 200.393 426.555 202.753C427.407 205.113 427.294 207.713 426.241 209.99Z" fill="#FFDCDC"/>
<path d="M426.431 206.561C425.525 206.752 423.023 197.03 422.451 184.782C421.88 172.533 421.832 162.835 422.666 162.716C423.5 162.597 425.192 172.462 425.716 184.591C426.24 196.72 427.217 206.371 426.431 206.561Z" fill="#FFDCDC"/>
<path d="M452.952 167.101C453.333 167.768 446.423 171.652 436.867 171.128C432.77 171.005 428.787 169.751 425.358 167.506C422.737 165.647 421.95 163.669 422.284 163.455C422.618 163.24 423.976 164.408 426.526 165.48C429.865 166.899 433.433 167.706 437.058 167.863C445.636 168.364 452.642 166.1 452.952 167.101Z" fill="#FFDCDC"/>
<path d="M456.622 214.376C455.829 216.091 454.544 217.532 452.93 218.515C451.316 219.499 449.446 219.98 447.558 219.898C445.67 219.816 443.849 219.175 442.326 218.056C440.803 216.936 439.648 215.39 439.006 213.612C438.364 211.835 438.265 209.907 438.722 208.073C439.178 206.239 440.17 204.582 441.57 203.313C442.97 202.044 444.716 201.22 446.586 200.945C448.456 200.67 450.365 200.958 452.071 201.771C454.336 202.85 456.084 204.779 456.936 207.138C457.788 209.498 457.676 212.099 456.622 214.376Z" fill="#FFDCDC"/>
<path d="M456.717 210.993C455.836 211.208 453.31 201.461 452.738 189.213C452.166 176.965 452.118 167.291 452.952 167.171C453.786 167.052 455.502 176.918 456.026 189.047C456.55 201.176 457.599 210.755 456.717 210.993Z" fill="#FFDCDC"/>
<path d="M453.572 173.534C454.049 174.249 447.71 178.3 438.726 178.3C429.743 178.3 423.5 173.892 424.024 173.201C424.548 172.51 430.696 174.964 438.774 175.012C446.852 175.059 453.167 172.653 453.572 173.534Z" fill="#FFDCDC"/>
<path d="M544.315 190.048C543.606 190.491 542.782 190.712 541.947 190.686C541.112 190.659 540.304 190.385 539.625 189.899C538.946 189.412 538.427 188.735 538.133 187.953C537.84 187.172 537.785 186.32 537.975 185.507C538.166 184.694 538.594 183.956 539.205 183.386C539.816 182.816 540.582 182.441 541.406 182.307C542.231 182.173 543.076 182.287 543.836 182.634C544.595 182.982 545.235 183.547 545.673 184.258C546.257 185.207 546.443 186.348 546.188 187.433C545.934 188.518 545.26 189.459 544.315 190.048Z" fill="#FFDCDC"/>
<path d="M545.173 188.808C544.792 188.665 546.246 184.424 548.986 179.706C550.46 176.773 552.293 174.036 554.443 171.556C554.824 171.747 553.013 175.798 550.273 180.444C548.821 183.376 547.115 186.175 545.173 188.808Z" fill="#FFDCDC"/>
<path d="M564.64 180.564C562.089 180.72 559.58 179.864 557.658 178.181C556.173 177.133 555.002 175.699 554.274 174.035C553.726 172.7 553.94 171.771 554.107 171.795C554.274 171.818 554.512 172.557 555.179 173.582C556.087 174.916 557.225 176.078 558.539 177.013C561.661 179.277 564.806 180.135 564.64 180.564Z" fill="#FFDCDC"/>
<path d="M554.559 199.078C553.849 199.514 553.025 199.729 552.192 199.697C551.359 199.665 550.554 199.387 549.879 198.898C549.205 198.409 548.69 197.731 548.4 196.949C548.11 196.168 548.058 195.318 548.251 194.507C548.444 193.696 548.872 192.96 549.483 192.393C550.093 191.825 550.858 191.452 551.681 191.319C552.504 191.186 553.348 191.299 554.106 191.645C554.864 191.992 555.503 192.555 555.941 193.264C556.233 193.736 556.429 194.261 556.518 194.809C556.607 195.357 556.586 195.917 556.458 196.458C556.329 196.998 556.095 197.507 555.77 197.957C555.444 198.407 555.032 198.788 554.559 199.078Z" fill="#FFDCDC"/>
<path d="M555.443 197.814C555.061 197.671 556.491 193.43 559.255 188.735C560.733 185.803 562.557 183.059 564.688 180.562C565.093 180.753 563.259 184.827 560.518 189.45C559.08 192.384 557.381 195.184 555.443 197.814Z" fill="#FFDCDC"/>
<path d="M563.355 183.112C563.355 183.494 559.995 183.494 556.683 181.254C553.37 179.014 552.107 175.916 552.465 175.773C552.822 175.63 554.514 178.156 557.517 180.039C560.519 181.921 563.426 182.684 563.355 183.112Z" fill="#FFDCDC"/>
<path d="M265.679 340.911C264.614 341.572 263.376 341.902 262.123 341.859C260.87 341.817 259.657 341.403 258.639 340.671C257.621 339.939 256.843 338.922 256.403 337.748C255.963 336.573 255.881 335.295 256.168 334.074C256.455 332.854 257.097 331.745 258.014 330.89C258.931 330.035 260.081 329.47 261.318 329.268C262.556 329.067 263.826 329.236 264.967 329.756C266.108 330.276 267.069 331.123 267.729 332.189C268.613 333.618 268.893 335.339 268.509 336.974C268.125 338.61 267.107 340.025 265.679 340.911Z" fill="#FFDCDC"/>
<path d="M266.991 339.026C266.419 338.812 268.563 332.426 272.71 325.396C276.856 318.366 280.383 312.886 280.883 313.124C281.383 313.362 278.738 319.51 274.616 326.468C270.494 333.426 267.563 339.241 266.991 339.026Z" fill="#FFDCDC"/>
<path d="M296.301 326.658C296.301 327.183 290.987 326.825 285.816 323.036C283.568 321.481 281.801 319.326 280.717 316.817C279.907 314.815 280.193 313.433 280.455 313.433C280.717 313.433 281.074 314.577 282.099 316.126C283.446 318.135 285.15 319.879 287.127 321.273C291.726 324.704 296.468 325.991 296.301 326.658Z" fill="#FFDCDC"/>
<path d="M281.073 354.446C280.007 355.109 278.769 355.442 277.514 355.401C276.259 355.36 275.045 354.947 274.025 354.215C273.005 353.483 272.226 352.465 271.785 351.289C271.345 350.114 271.264 348.834 271.551 347.612C271.839 346.39 272.484 345.281 273.402 344.426C274.321 343.571 275.474 343.007 276.713 342.808C277.952 342.608 279.223 342.781 280.364 343.304C281.505 343.828 282.465 344.678 283.122 345.748C283.998 347.174 284.275 348.89 283.891 350.519C283.507 352.149 282.494 353.56 281.073 354.446Z" fill="#FFDCDC"/>
<path d="M282.409 352.56C281.837 352.345 283.982 345.983 288.128 338.93C292.274 331.876 295.777 326.419 296.302 326.658C296.826 326.896 294.157 333.044 290.035 340.026C285.912 347.008 282.957 352.774 282.409 352.56Z" fill="#FFDCDC"/>
<path d="M294.275 330.496C294.275 331.068 289.247 331.068 284.267 327.684C279.286 324.3 277.38 319.654 277.904 319.463C278.429 319.272 281.002 322.894 285.506 325.873C290.009 328.852 294.37 329.852 294.275 330.496Z" fill="#FFDCDC"/>
<path d="M162.249 532.835C154.601 529.599 147.507 525.186 141.223 519.757C134.753 514.356 129.199 507.945 124.775 500.772C123.669 498.994 122.654 497.159 121.736 495.276L119.155 489.537C118.42 487.566 117.889 485.518 117.248 483.524C116.982 482.5 116.607 481.529 116.388 480.493L115.912 477.412C115.643 475.321 115.158 473.261 115.07 471.197L114.829 464.901C114.805 462.824 114.957 460.749 115.282 458.698L116.127 452.567C115.922 460.791 116.808 469.005 118.76 476.997C119.152 478.973 119.698 480.916 120.391 482.808C121.072 484.668 121.672 486.599 122.429 488.465L124.984 493.912C125.879 495.703 126.869 497.445 127.951 499.129C132.2 505.99 137.296 512.288 143.119 517.874C146.038 520.71 149.125 523.369 152.362 525.836C155.51 528.371 158.812 530.708 162.249 532.835Z" fill="#FBBFBF"/>
<path d="M151.896 566C140.676 561.177 130.251 554.685 120.972 546.745C111.499 538.896 103.359 529.565 96.8678 519.115C93.6787 513.822 90.9571 508.261 88.7336 502.495C86.5605 496.747 84.9445 490.803 83.9078 484.745C81.9107 472.662 82.153 460.315 84.6227 448.32C84.0862 454.341 83.9538 460.392 84.2265 466.431C84.4518 472.426 85.2083 478.389 86.4869 484.25C89.0243 495.923 93.5374 507.076 99.8313 517.229C106.16 527.394 113.872 536.63 122.744 544.671C127.165 548.75 131.828 552.559 136.705 556.079C141.549 559.711 146.623 563.025 151.896 566Z" fill="#FBBFBF"/>
<path d="M137.225 595.556C123.231 589.539 110.226 581.442 98.6514 571.538C86.8354 561.747 76.6819 550.108 68.5848 537.072C64.6069 530.47 61.2119 523.533 58.4384 516.341C55.7277 509.171 53.712 501.756 52.4189 494.2C49.9277 479.128 50.2299 463.727 53.3106 448.764C52.6413 456.275 52.4762 463.822 52.8163 471.355C53.0975 478.833 54.041 486.271 55.636 493.583C58.801 508.143 64.4305 522.055 72.2814 534.719C80.1762 547.399 89.7951 558.92 100.862 568.951C106.377 574.038 112.193 578.79 118.277 583.18C124.319 587.711 130.648 591.845 137.225 595.556Z" fill="#FBBFBF"/>
<path d="M464.859 423.809C467.805 431.979 469.463 440.559 469.775 449.243C470.195 458.008 469.207 466.788 466.848 475.249C466.293 477.37 465.615 479.458 464.816 481.502L462.226 487.6C461.222 489.567 460.034 491.438 458.944 493.333C458.435 494.303 457.87 495.243 457.251 496.148L455.199 498.726C453.788 500.443 452.563 502.255 451.009 503.809L446.34 508.395C444.762 509.904 443.049 511.266 441.223 512.463C439.406 513.595 437.709 514.988 435.929 516.181C442.426 510.625 448.157 504.236 452.974 497.179C454.228 495.489 455.332 493.693 456.273 491.812C457.235 489.914 458.211 488.174 459.195 486.178L461.645 480.46C462.385 478.496 463.018 476.493 463.54 474.46C465.783 466.308 466.991 457.91 467.137 449.463C467.247 445.207 467.094 440.95 466.678 436.715C466.355 432.377 465.747 428.066 464.859 423.809Z" fill="#FBBFBF"/>
<path d="M497.506 408.018C501.811 420.054 504.291 432.66 504.863 445.415C505.595 458.262 504.272 471.134 500.944 483.541C499.227 489.74 496.964 495.772 494.184 501.565C491.355 507.33 487.969 512.8 484.074 517.898C476.307 528.026 466.727 536.615 455.819 543.227C460.796 539.365 465.498 535.159 469.89 530.64C474.293 526.234 478.291 521.439 481.834 516.313C488.931 506.068 494.226 494.675 497.494 482.626C500.727 470.535 502.272 458.044 502.084 445.51C501.949 432.893 500.403 420.323 497.476 408.036L497.506 408.018Z" fill="#FBBFBF"/>
<path d="M532.496 391.182C538.325 407.482 541.683 424.554 542.458 441.828C543.449 459.226 541.657 476.657 537.151 493.459C534.825 501.854 531.762 510.022 527.996 517.868C524.165 525.675 519.58 533.083 514.305 539.986C503.786 553.703 490.812 565.334 476.041 574.289C482.782 569.058 489.149 563.362 495.097 557.242C501.06 551.276 506.473 544.783 511.272 537.84C520.882 523.966 528.054 508.538 532.479 492.22C536.857 475.846 538.949 458.93 538.694 441.956C538.511 424.869 536.419 407.847 532.455 391.208L532.496 391.182Z" fill="#FBBFBF"/>
</svg>
