<svg width="20" height="20" viewBox="0 0 20 20" fill="none" xmlns="http://www.w3.org/2000/svg">

    <!-- шапка профиля -->
    <g id='search'>
        <path d="M9 17C13.4183 17 17 13.4183 17 9C17 4.58172 13.4183 1 9 1C4.58172 1 1 4.58172 1 9C1 13.4183 4.58172 17 9 17Z" stroke="#FF4948" stroke-width="2" stroke-linecap="round" stroke-linejoin="round"/>
        <path d="M19.0004 19.0004L14.6504 14.6504" stroke="#FF4948" stroke-width="2" stroke-linecap="round" stroke-linejoin="round"/>
    </g>


    <g id='basket'>
        <path d="M4 1L1 5V19C1 19.5304 1.21071 20.0391 1.58579 20.4142C1.96086 20.7893 2.46957 21 3 21H17C17.5304 21 18.0391 20.7893 18.4142 20.4142C18.7893 20.0391 19 19.5304 19 19V5L16 1H4Z" stroke="#FF4948" stroke-width="2" stroke-linecap="round" stroke-linejoin="round"/>
        <path d="M1 5H19" stroke="#FF4948" stroke-width="2" stroke-linecap="round" stroke-linejoin="round"/>
        <path d="M14 9C14 10.0609 13.5786 11.0783 12.8284 11.8284C12.0783 12.5786 11.0609 13 10 13C8.93913 13 7.92172 12.5786 7.17157 11.8284C6.42143 11.0783 6 10.0609 6 9" stroke="#FF4948" stroke-width="2" stroke-linecap="round" stroke-linejoin="round"/>
    </g>

    <g id='user'>
        <path d="M17 19V17C17 15.9391 16.5786 14.9217 15.8284 14.1716C15.0783 13.4214 14.0609 13 13 13H5C3.93913 13 2.92172 13.4214 2.17157 14.1716C1.42143 14.9217 1 15.9391 1 17V19" stroke="#FF4948" stroke-width="2" stroke-linecap="round" stroke-linejoin="round"/>
        <path id="Vector_2" d="M9 9C11.2091 9 13 7.20914 13 5C13 2.79086 11.2091 1 9 1C6.79086 1 5 2.79086 5 5C5 7.20914 6.79086 9 9 9Z" stroke="#FF4948" stroke-width="2" stroke-linecap="round" stroke-linejoin="round"/>
    </g>

    <g id='burgerMenu'>
        <path id="Vector" d="M39.5003 10.3336H10.3336" stroke="white" stroke-width="3" stroke-linecap="round" stroke-linejoin="round"/>
        <path id="Vector_2" d="M39.5 2H2" stroke="white" stroke-width="3" stroke-linecap="round" stroke-linejoin="round"/>
        <path id="Vector_3" d="M39.5 18.6664H2" stroke="white" stroke-width="3" stroke-linecap="round" stroke-linejoin="round"/>
        <path id="Vector_4" d="M39.5003 27H10.3336" stroke="white" stroke-width="3" stroke-linecap="round" stroke-linejoin="round"/>
    </g>

    <!-- фоновые нотки -->
    <g id='backgroundNoteOne'>
        <path d="M25.6476 11.0069C25.6476 11.0069 36.279 14.6916 32.6883 17.1323C29.0975 19.5731 17.1753 50.9981 19.6395 55.0817C22.1038 59.1653 29.8251 45.6941 34.3311 50.1767C38.8371 54.6592 32.2893 65.6897 25.3425 64.8682C18.3957 64.0468 15.1335 57.1235 16.7763 48.44C18.4191 39.7564 24.0282 26.2148 24.7323 23.2577C25.4364 20.3006 22.268 18.7752 17.3865 21.6149C12.5049 24.4547 3.91531 19.5731 1.45107 14.2691C-1.01317 8.96514 1.0521 -1.92516e-05 1.0521 -1.92516e-05C1.0521 -1.92516e-05 -0.567257 4.48255 7.57648 6.52436C15.7202 8.56616 22.8078 9.78654 25.6476 11.0069Z" fill="white"/>
    </g>

    <g id='backgroundNoteTwo'>
        <path d="M15.65 12.8089C20.9706 10.1065 26.1342 7.10547 31.1161 3.82027C38.6262 -1.20209 42.8506 1.21521 41.771 4.5478C40.6915 7.8804 47.1454 31.5137 56.7677 43.9992C66.3899 56.4847 65.4981 42.239 72.75 39.7748C80.0019 37.3105 83.9213 44.4685 78.3592 52.7766C72.797 61.0846 60.2176 58.5734 58.5513 53.4806C56.885 48.3879 45.1036 26.0689 41.6067 20.6241C38.1098 15.1793 35.5282 15.4844 29.1916 21.7975C26.487 24.6531 23.115 26.7916 19.3788 28.0206C15.6427 29.2496 11.6596 29.5306 7.78792 28.8382C7.78792 28.8382 20.7663 53.7153 24.7325 61.6948C28.6988 69.6742 31.9844 79.7659 37.8282 79.5547C43.672 79.3434 50.2667 67.8202 54.9136 74.8609C59.5605 81.9016 45.6903 93.8942 38.2272 90.4912C30.764 87.0882 26.1876 71.4579 20.6489 60.6621C15.1103 49.8664 -0.919046 21.422 0.0431886 17.3619C1.00542 13.3017 8.46853 17.4792 15.65 12.8089Z" fill="white"/>
    </g>


<!-- пример с характеристиками -->

    <g id='battery'>
        <path id="Vector" d="M28.3377 23.1459H21.1042C20.7049 23.1459 20.3809 22.8218 20.3809 22.4226C20.3809 22.0233 20.7049 21.6992 21.1042 21.6992H28.3377C29.5342 21.6992 30.5078 20.7256 30.5078 19.5291V18.0824C30.5078 17.6831 30.8319 17.3591 31.2312 17.3591H32.6648C33.0641 17.3591 33.3882 17.035 33.3882 16.6357V7.95549C33.3882 7.5562 33.0641 7.23214 32.6648 7.23214H31.2312C30.8319 7.23214 30.5078 6.90808 30.5078 6.50879V5.06208C30.5078 3.86565 29.5342 2.89202 28.3377 2.89202H23.9976C23.5983 2.89202 23.2743 2.56796 23.2743 2.16867C23.2743 1.76937 23.5983 1.44531 23.9976 1.44531H28.3377C30.3313 1.44531 31.9545 3.06852 31.9545 5.06208V5.78543H32.6648C33.8613 5.78543 34.8349 6.75907 34.8349 7.95549V16.6357C34.8349 17.8322 33.8613 18.8058 32.6648 18.8058H31.9545V19.5291C31.9545 21.5227 30.3313 23.1459 28.3377 23.1459Z" fill="#FF4948"/>
        <path id="Vector_2" d="M9.40359 23.1457H3.61677C1.6232 23.1457 0 21.5225 0 19.5289V5.06184C0 3.06827 1.6232 1.44507 3.61677 1.44507H13.7437C14.143 1.44507 14.4671 1.76913 14.4671 2.16842C14.4671 2.56771 14.143 2.89178 13.7437 2.89178H3.61677C2.42034 2.89178 1.44671 3.86541 1.44671 5.06184V19.5289C1.44671 20.7253 2.42034 21.699 3.61677 21.699H9.40359C9.80288 21.699 10.1269 22.023 10.1269 22.4223C10.1269 22.8216 9.80288 23.1457 9.40359 23.1457Z" fill="#FF4948"/>
        <path id="Vector_3" d="M13.5218 26.0394C13.4075 26.0394 13.2904 26.0119 13.1833 25.9554C12.8723 25.7905 12.7247 25.4245 12.8361 25.0889L15.8655 15.9124H10.1901C9.92098 15.9124 9.67504 15.7634 9.54918 15.5247C9.42476 15.286 9.44212 14.9981 9.59547 14.7767L19.6154 0.309669C19.8121 0.0261146 20.1868 -0.0751549 20.4993 0.0579421C20.8161 0.196826 20.9912 0.539696 20.9174 0.876778L18.8804 10.1256H24.6571C24.932 10.1256 25.1837 10.2818 25.3067 10.5292C25.4282 10.7766 25.3979 11.0717 25.23 11.2902L14.0947 25.7572C13.9544 25.941 13.7403 26.0394 13.5218 26.0394ZM11.5717 14.4657H16.8666C17.0995 14.4657 17.3165 14.5771 17.4525 14.7652C17.5885 14.9532 17.6261 15.1948 17.5524 15.4162L15.5414 21.5054L23.1873 11.5723H17.9806C17.7621 11.5723 17.5538 11.4725 17.4164 11.3017C17.2789 11.131 17.2269 10.9068 17.2731 10.6927L18.7141 4.15212L11.5717 14.4657Z" fill="#FF4948"/>
    </g>

    <g id='bluetooth'>
        <path id="Vector" d="M27.6719 23.2339L20.2178 17.5L27.6719 11.7661C28.2454 11.3223 28.5815 10.6384 28.5825 9.91327C28.5792 9.18818 28.2411 8.50527 27.6665 8.06299L17.7498 0.479678C17.723 0.459307 17.6945 0.441191 17.6646 0.425537C17.2753 0.148818 16.8096 0.000136719 16.3319 0C15.0221 0.0475098 13.988 1.12896 13.9991 2.43961V12.6442L9.73863 9.0423C9.49424 8.84406 9.18006 8.75294 8.86752 8.78965C8.55498 8.82636 8.27047 8.98769 8.07859 9.23713L6.65794 11.0845C6.27602 11.5849 6.35791 12.2976 6.8434 12.6983L12.6092 17.5L6.85106 22.2957C6.36024 22.6952 6.27486 23.4121 6.65794 23.9158L8.07866 25.7629C8.27177 26.014 8.55867 26.1758 8.87347 26.2111C9.18826 26.2464 9.50388 26.1522 9.74779 25.95L13.9992 22.3558V32.5604C13.988 33.8711 15.0223 34.9526 16.3322 35C16.8092 34.9998 17.2743 34.8515 17.6633 34.5754C17.6936 34.5595 17.7226 34.5411 17.7499 34.5204L27.6665 26.937C28.2429 26.4962 28.5814 25.8124 28.5825 25.0868C28.5836 24.3612 28.247 23.6764 27.6719 23.2339ZM26.9578 26.0102L17.1123 33.5391C17.0858 33.5536 17.0604 33.5701 17.0363 33.5884C16.8353 33.7456 16.5878 33.8317 16.3325 33.8333C15.6711 33.7783 15.1631 33.2241 15.1658 32.5604V21.0988C15.1658 20.8718 15.0341 20.6653 14.828 20.5697C14.6221 20.4742 14.3793 20.5068 14.2059 20.6534L9.00322 25.0515L7.59016 23.1984L13.8941 17.9484C14.0271 17.8375 14.104 17.6732 14.104 17.5001C14.104 17.3269 14.0271 17.1626 13.8941 17.0518L7.5825 11.7958L8.99467 9.94096L14.2059 14.3467C14.3793 14.4933 14.6221 14.526 14.828 14.4304C15.034 14.3348 15.1658 14.1283 15.1657 13.9012V2.43961C15.163 1.77604 15.6709 1.22186 16.3322 1.16669C16.5875 1.16819 16.8351 1.25439 17.0363 1.41162C17.06 1.4298 17.0851 1.44614 17.1115 1.46036L26.9578 8.98987C27.246 9.21026 27.4153 9.55227 27.4158 9.91505C27.4163 10.2779 27.248 10.6203 26.9604 10.8415L18.9054 17.0378C18.7619 17.1482 18.6778 17.319 18.6778 17.5001C18.6778 17.6812 18.7619 17.8519 18.9054 17.9624L26.9604 24.1586C27.248 24.3798 27.4164 24.7222 27.4158 25.0851C27.4153 25.4478 27.2461 25.7898 26.9578 26.0102Z" fill="#FF4948"/>
        <path id="Vector_2" d="M18.0824 14.5743C18.4046 14.5743 18.6657 14.3132 18.6657 13.991V7.05504L22.4149 9.9221L20.06 11.7336C19.8061 11.9306 19.7593 12.2957 19.9552 12.5503C20.1511 12.8049 20.5161 12.8532 20.7715 12.6582L23.7292 10.383C23.8729 10.2724 23.957 10.1011 23.9567 9.91977C23.9565 9.73842 23.8718 9.56745 23.7277 9.45725L18.4367 5.41127C18.2604 5.27653 18.0229 5.25343 17.8239 5.3518C17.625 5.4501 17.4991 5.65278 17.499 5.87468V13.9909C17.4991 14.3132 17.7602 14.5743 18.0824 14.5743Z" fill="#FF4948"/>
        <path id="Vector_3" d="M23.7292 24.6173L20.7715 22.3421C20.5161 22.1472 20.1511 22.1954 19.9552 22.45C19.7593 22.7046 19.8061 23.0698 20.06 23.2667L22.415 25.0782L18.6658 27.9453V21.0093C18.6658 20.6872 18.4046 20.426 18.0825 20.426C17.7603 20.426 17.4991 20.6872 17.4991 21.0093V29.1256C17.4991 29.3475 17.6251 29.5502 17.8241 29.6485C18.0231 29.7468 18.2605 29.7238 18.4368 29.589L23.7278 25.543C23.8719 25.4328 23.9566 25.2619 23.9569 25.0805C23.9571 24.8991 23.873 24.7279 23.7292 24.6173Z" fill="#FF4948"/>
    </g>

    <g id='microphone'>
        <path d="M6.38761 8.5516C6.13592 8.29991 5.72787 8.29985 5.47612 8.55147C3.96618 10.0611 3.13454 12.0667 3.13454 14.1988C3.13454 16.331 3.96611 18.3366 5.47612 19.8462C5.602 19.972 5.76687 20.0349 5.9318 20.0349C6.0968 20.0349 6.2618 19.9719 6.38761 19.846C6.6393 19.5943 6.63924 19.1862 6.38755 18.9345C5.12111 17.6684 4.42366 15.9866 4.42366 14.1987C4.42366 12.411 5.12111 10.7291 6.38755 9.46303C6.63924 9.21141 6.6393 8.80335 6.38761 8.5516Z" fill="#FF4948"/>
        <path d="M24.3081 11.74C23.9522 11.74 23.6635 12.0286 23.6635 12.3845V13.3756H22.2101V6.51035C22.2101 3.36478 19.6482 0.805664 16.4992 0.805664C13.3512 0.805664 10.7901 3.36478 10.7901 6.51035V13.3756H9.3367V12.3846C9.3367 12.0287 9.04814 11.7401 8.69217 11.7401C8.3362 11.7401 8.04764 12.0287 8.04764 12.3846V16.187C8.04764 19.9726 10.5525 23.1845 13.9929 24.2543V27.7327H11.7635C10.5316 27.7327 9.52942 28.7335 9.52942 29.9635V31.3162C9.52942 31.8004 9.92425 32.1943 10.4097 32.1943H13.6052C13.9611 32.1943 14.2497 31.9057 14.2497 31.5498C14.2497 31.1939 13.9611 30.9053 13.6052 30.9053H10.8185V29.9635C10.8185 29.4442 11.2425 29.0218 11.7635 29.0218H21.2367C21.7568 29.0218 22.1799 29.4443 22.1799 29.9635V30.9053H19.3933C19.0374 30.9053 18.7488 31.1939 18.7488 31.5498C18.7488 31.9057 19.0374 32.1943 19.3933 32.1943H22.5906C23.075 32.1943 23.469 31.8004 23.469 31.3162V29.9635C23.469 28.7335 22.4676 27.7327 21.2367 27.7327H19.0055V24.2544C22.4469 23.1848 24.9527 19.9728 24.9527 16.187V12.3846C24.9526 12.0286 24.664 11.74 24.3081 11.74ZM12.0791 6.51035C12.0791 4.07563 14.0619 2.09473 16.4991 2.09473C18.9374 2.09473 20.921 4.07556 20.921 6.51035V8.64046H12.0791V6.51035ZM12.0791 9.92952H20.9211V11.6105H12.0791V9.92952ZM12.0791 12.8995H20.9211V16.187C20.9211 18.6217 18.9374 20.6026 16.4992 20.6026C14.062 20.6026 12.0791 18.6217 12.0791 16.187V12.8995H12.0791ZM17.7164 27.7326H15.2819V24.5454C15.6795 24.603 16.0858 24.6334 16.4992 24.6334C16.9125 24.6334 17.3188 24.603 17.7164 24.5455V27.7326H17.7164ZM23.6635 16.187C23.6635 20.1335 20.4496 23.3443 16.4992 23.3443C12.5498 23.3443 9.3367 20.1336 9.3367 16.187V14.6647H10.7901V16.187C10.7901 19.3325 13.3512 21.8916 16.4992 21.8916C19.6482 21.8916 22.2101 19.3325 22.2101 16.187V14.6647H23.6635V16.187Z" fill="#FF4948"/>
        <path d="M29.7386 6.33728C29.4868 6.08559 29.0786 6.08591 28.8271 6.33767C28.5756 6.58948 28.5758 6.9976 28.8276 7.24923C30.6869 9.10683 31.7108 11.5753 31.7108 14.1999C31.7108 16.8245 30.6869 19.2931 28.8276 21.1507C28.5758 21.4022 28.5756 21.8103 28.8272 22.0622C28.9531 22.1882 29.1181 22.2512 29.2831 22.2512C29.448 22.2512 29.6128 22.1883 29.7387 22.0626C31.8417 19.9614 32.9999 17.1691 32.9999 14.1999C32.9999 11.2308 31.8417 8.43839 29.7386 6.33728Z" fill="#FF4948"/>
        <path d="M27.5228 8.55161C27.2709 8.29999 26.8629 8.30024 26.6112 8.552C26.3597 8.80382 26.3599 9.21193 26.6116 9.46356C27.8788 10.7297 28.5767 12.4114 28.5767 14.1991C28.5767 15.9869 27.8788 17.6686 26.6116 18.9348C26.3599 19.1863 26.3597 19.5944 26.6112 19.8463C26.7371 19.9723 26.9022 20.0353 27.0672 20.0353C27.2321 20.0353 27.3969 19.9724 27.5227 19.8467C29.0337 18.3371 29.8658 16.3314 29.8658 14.1992C29.8658 12.0669 29.0337 10.0612 27.5228 8.55161Z" fill="#FF4948"/>
        <path d="M1.28906 14.1995C1.28906 11.5748 2.31258 9.10627 4.17102 7.2486C4.42277 6.99698 4.4229 6.58892 4.17121 6.33711C3.91952 6.08529 3.51147 6.08522 3.25972 6.33691C1.15764 8.43808 0 11.2304 0 14.1995C0 17.1686 1.15764 19.9609 3.25972 22.062C3.38553 22.1878 3.55046 22.2507 3.71534 22.2507C3.88034 22.2507 4.04534 22.1877 4.17121 22.0618C4.42284 21.81 4.42277 21.402 4.17102 21.1503C2.31258 19.2927 1.28906 16.8241 1.28906 14.1995Z" fill="#FF4948"/>
        <path d="M16.499 30.9053C16.143 30.9053 15.8544 31.1939 15.8544 31.5498C15.8544 31.9057 16.143 32.1943 16.499 32.1943H16.5026C16.8585 32.1943 17.1454 31.9057 17.1454 31.5498C17.1454 31.1939 16.8549 30.9053 16.499 30.9053Z" fill="#FF4948"/>
        <defs>
            <clipPath id="clip0_11_46825">
                <rect width="33" height="33" fill="white"/>
            </clipPath>
        </defs>
    </g>

<!-- волны от наушников -->

    <g id='wavesLeft'>
        <path id="Vector" d="M162.249 102.835C154.601 99.5987 147.507 95.186 141.223 89.757C134.753 84.3563 129.199 77.9454 124.775 70.7724C123.669 68.9936 122.654 67.1591 121.736 65.2762L119.155 59.537C118.42 57.5665 117.889 55.5184 117.248 53.5237C116.982 52.4996 116.607 51.529 116.388 50.4929L115.912 47.412C115.643 45.3208 115.158 43.2606 115.07 41.197L114.829 34.9009C114.805 32.8241 114.957 30.7491 115.282 28.6978L116.127 22.5672C115.922 30.7908 116.808 39.0054 118.76 46.9965C119.152 48.973 119.698 50.916 120.391 52.8081C121.072 54.6683 121.672 56.5993 122.429 58.4646L124.984 63.9125C125.879 65.7034 126.869 67.4449 127.951 69.1293C132.2 75.99 137.296 82.2879 143.119 87.8743C146.038 90.7101 149.125 93.3687 152.362 95.8357C155.51 98.3706 158.812 100.708 162.249 102.835Z" fill="#FBBFBF"/>
        <path id="Vector_2" d="M151.896 136C140.676 131.177 130.251 124.685 120.972 116.745C111.499 108.896 103.359 99.565 96.8678 89.1148C93.6787 83.8218 90.9571 78.2609 88.7336 72.4953C86.5605 66.7467 84.9445 60.8026 83.9078 54.7449C81.9107 42.6621 82.153 30.315 84.6227 18.3199C84.0862 24.3412 83.9538 30.3916 84.2265 36.4307C84.4518 42.4256 85.2083 48.3887 86.4869 54.2501C89.0243 65.9227 93.5374 77.0761 99.8313 87.2286C106.16 97.3937 113.872 106.63 122.744 114.671C127.165 118.75 131.828 122.559 136.705 126.079C141.549 129.711 146.623 133.025 151.896 136Z" fill="#FBBFBF"/>
        <path id="Vector_3" d="M137.225 165.556C123.231 159.539 110.226 151.442 98.6514 141.538C86.8354 131.747 76.6819 120.108 68.5848 107.072C64.6069 100.47 61.2119 93.5333 58.4384 86.3415C55.7277 79.1707 53.712 71.7562 52.4189 64.2001C49.9277 49.1283 50.2299 33.7268 53.3106 18.7644C52.6413 26.2752 52.4762 33.8224 52.8163 41.3553C53.0975 48.8332 54.041 56.2715 55.636 63.5828C58.801 78.1429 64.4305 92.0553 72.2814 104.719C80.1762 117.399 89.7951 128.92 100.862 138.951C106.377 144.038 112.193 148.79 118.277 153.18C124.319 157.711 130.648 161.845 137.225 165.556Z" fill="#FBBFBF"/>
    </g>   
    
    <g id='wavesRight'>
        <path id="Vector" d="M85.8586 60.8087C88.8047 68.9785 90.4632 77.5586 90.7751 86.2434C91.1949 95.0082 90.2068 103.788 87.8484 112.249C87.2931 114.37 86.6147 116.458 85.8165 118.502L83.2257 124.6C82.2224 126.567 81.0343 128.438 79.9443 130.333C79.435 131.303 78.8696 132.243 78.2509 133.148L76.1991 135.726C74.7884 137.443 73.5627 139.255 72.0089 140.809L67.3401 145.395C65.7622 146.904 64.0493 148.266 62.223 149.463C60.4058 150.595 58.7089 151.988 56.9293 153.181C63.4256 147.625 69.1572 141.236 73.9739 134.179C75.2277 132.489 76.3316 130.693 77.2731 128.812C78.2345 126.914 79.2107 125.174 80.1951 123.178L82.645 117.46C83.385 115.496 84.0177 113.493 84.5401 111.46C86.7826 103.308 87.9909 94.9096 88.1367 86.4625C88.247 82.2071 88.0937 77.9497 87.6777 73.7147C87.355 69.3768 86.7474 65.0655 85.8586 60.8087Z" fill="#FBBFBF"/>
        <path id="Vector_2" d="M118.506 45.0177C122.811 57.0535 125.291 69.66 125.863 82.4151C126.595 95.2624 125.272 108.134 121.944 120.541C120.227 126.74 117.964 132.772 115.184 138.565C112.355 144.33 108.969 149.8 105.074 154.898C97.3066 165.026 87.7266 173.615 76.8193 180.227C81.7964 176.365 86.4982 172.159 90.8905 167.64C95.2934 163.234 99.2908 158.439 102.834 153.313C109.931 143.068 115.226 131.675 118.494 119.626C121.727 107.535 123.272 95.0439 123.084 82.5098C122.949 69.8925 121.403 57.3229 118.476 45.0364L118.506 45.0177Z" fill="#FBBFBF"/>
        <path id="Vector_3" d="M153.496 28.1825C159.325 44.4819 162.683 61.5541 163.458 78.8276C164.449 96.226 162.657 113.657 158.151 130.459C155.825 138.854 152.762 147.022 148.996 154.868C145.165 162.675 140.58 170.083 135.305 176.986C124.786 190.703 111.812 202.334 97.0414 211.289C103.782 206.058 110.149 200.362 116.097 194.242C122.06 188.276 127.473 181.783 132.272 174.84C141.882 160.966 149.054 145.538 153.479 129.22C157.857 112.846 159.949 95.93 159.694 78.9558C159.511 61.869 157.419 44.8467 153.455 28.2079L153.496 28.1825Z" fill="#FBBFBF"/>
    </g>
    
    <!-- корзина для товаров -->

    <g id='shoppingCart'>
        <path id="Vector" d="M9.04163 23.2499C7.62079 23.2499 6.47121 24.4124 6.47121 25.8333C6.47121 27.2541 7.62079 28.4166 9.04163 28.4166C10.4625 28.4166 11.625 27.2541 11.625 25.8333C11.625 24.4124 10.4625 23.2499 9.04163 23.2499ZM1.29163 2.58325V5.16659H3.87496L8.52496 14.9703L6.78121 18.1349C6.57454 18.4966 6.45829 18.9228 6.45829 19.3749C6.45829 20.7958 7.62079 21.9583 9.04163 21.9583H24.5416V19.3749H9.58413C9.40329 19.3749 9.26121 19.2328 9.26121 19.052L9.29996 18.897L10.4625 16.7916H20.0854C21.0541 16.7916 21.9066 16.262 22.3458 15.4612L26.97 7.07825C27.0733 6.89742 27.125 6.67784 27.125 6.45825C27.125 5.74784 26.5437 5.16659 25.8333 5.16659H6.72954L5.51538 2.58325H1.29163ZM21.9583 23.2499C20.5375 23.2499 19.3879 24.4124 19.3879 25.8333C19.3879 27.2541 20.5375 28.4166 21.9583 28.4166C23.3791 28.4166 24.5416 27.2541 24.5416 25.8333C24.5416 24.4124 23.3791 23.2499 21.9583 23.2499Z" fill="#716969"/>
    </g>

    <g id='fiveStars'>
        <path d="M14.2516 2.92705C14.551 2.00574 15.8544 2.00574 16.1538 2.92705L18.3914 9.81383C18.5253 10.2258 18.9092 10.5048 19.3425 10.5048L26.5837 10.5048C27.5524 10.5048 27.9552 11.7444 27.1714 12.3138L21.3132 16.5701C20.9627 16.8247 20.816 17.2761 20.9499 17.6881L23.1876 24.5749C23.4869 25.4962 22.4324 26.2623 21.6487 25.6929L15.7905 21.4367C15.44 21.182 14.9654 21.182 14.6149 21.4367L8.75668 25.6929C7.97296 26.2623 6.91848 25.4962 7.21784 24.5749L9.45548 17.6881C9.58936 17.2761 9.4427 16.8247 9.09221 16.5701L3.23397 12.3138C2.45026 11.7444 2.85303 10.5048 3.82176 10.5048L11.0629 10.5048C11.4962 10.5048 11.8801 10.2258 12.014 9.81383L14.2516 2.92705Z" fill="#FDAE38"/>
        <path d="M54.6569 2.92705C54.9563 2.00574 56.2597 2.00574 56.559 2.92705L58.7967 9.81383C58.9306 10.2258 59.3145 10.5048 59.7477 10.5048L66.9889 10.5048C67.9576 10.5048 68.3604 11.7444 67.5767 12.3138L61.7185 16.5701C61.368 16.8247 61.2213 17.2761 61.3552 17.6881L63.5928 24.5749C63.8922 25.4962 62.8377 26.2623 62.054 25.6929L56.1958 21.4367C55.8453 21.182 55.3707 21.182 55.0202 21.4367L49.162 25.6929C48.3782 26.2623 47.3238 25.4962 47.6231 24.5749L49.8608 17.6881C49.9946 17.2761 49.848 16.8247 49.4975 16.5701L43.6392 12.3138C42.8555 11.7444 43.2583 10.5048 44.227 10.5048L51.4682 10.5048C51.9014 10.5048 52.2854 10.2258 52.4193 9.81383L54.6569 2.92705Z" fill="#FDAE38"/>
        <path d="M95.0622 2.92705C95.3615 2.00574 96.665 2.00574 96.9643 2.92705L99.202 9.81383C99.3358 10.2258 99.7198 10.5048 100.153 10.5048L107.394 10.5048C108.363 10.5048 108.766 11.7444 107.982 12.3138L102.124 16.5701C101.773 16.8247 101.627 17.2761 101.76 17.6881L103.998 24.5749C104.297 25.4962 103.243 26.2623 102.459 25.6929L96.601 21.4367C96.2505 21.182 95.776 21.182 95.4255 21.4367L89.5672 25.6929C88.7835 26.2623 87.729 25.4962 88.0284 24.5749L90.266 17.6881C90.3999 17.2761 90.2532 16.8247 89.9028 16.5701L84.0445 12.3138C83.2608 11.7444 83.6636 10.5048 84.6323 10.5048L91.8735 10.5048C92.3067 10.5048 92.6907 10.2258 92.8245 9.81383L95.0622 2.92705Z" fill="#FDAE38"/>
        <path d="M135.467 2.92705C135.767 2.00574 137.07 2.00574 137.37 2.92705L139.607 9.81383C139.741 10.2258 140.125 10.5048 140.558 10.5048L147.799 10.5048C148.768 10.5048 149.171 11.7444 148.387 12.3138L142.529 16.5701C142.179 16.8247 142.032 17.2761 142.166 17.6881L144.403 24.5749C144.703 25.4962 143.648 26.2623 142.865 25.6929L137.006 21.4367C136.656 21.182 136.181 21.182 135.831 21.4367L129.972 25.6929C129.189 26.2623 128.134 25.4962 128.434 24.5749L130.671 17.6881C130.805 17.2761 130.659 16.8247 130.308 16.5701L124.45 12.3138C123.666 11.7444 124.069 10.5048 125.038 10.5048L132.279 10.5048C132.712 10.5048 133.096 10.2258 133.23 9.81383L135.467 2.92705Z" fill="#FDAE38"/>
        <path d="M175.873 2.92705C176.172 2.00574 177.476 2.00574 177.775 2.92705L180.013 9.81383C180.146 10.2258 180.53 10.5048 180.964 10.5048L188.205 10.5048C189.173 10.5048 189.576 11.7444 188.793 12.3138L182.934 16.5701C182.584 16.8247 182.437 17.2761 182.571 17.6881L184.809 24.5749C185.108 25.4962 184.054 26.2623 183.27 25.6929L177.412 21.4367C177.061 21.182 176.586 21.182 176.236 21.4367L170.378 25.6929C169.594 26.2623 168.54 25.4962 168.839 24.5749L171.077 17.6881C171.21 17.2761 171.064 16.8247 170.713 16.5701L164.855 12.3138C164.071 11.7444 164.474 10.5048 165.443 10.5048L172.684 10.5048C173.117 10.5048 173.501 10.2258 173.635 9.81383L175.873 2.92705Z" fill="#FDAE38"/>  
    </g>

    <!-- стрелочка в круге в доп комплектации -->

    <g id='arrowToRight'>
        <path id="Vector" d="M11 21.5C16.5228 21.5 21 17.0228 21 11.5C21 5.97715 16.5228 1.5 11 1.5C5.47715 1.5 1 5.97715 1 11.5C1 17.0228 5.47715 21.5 11 21.5Z" stroke="black" stroke-width="2" stroke-linecap="round" stroke-linejoin="round"/>
        <path id="Vector_2" d="M11 15.5L15 11.5L11 7.5" stroke="black" stroke-width="2" stroke-linecap="round" stroke-linejoin="round"/>
        <path id="Vector_3" d="M7 11.5H15" stroke="black" stroke-width="2" stroke-linecap="round" stroke-linejoin="round"/>
    </g>

    <!-- социальные сети -->
    <g id='inst'>
        <path id="Vector" d="M16 1H6C3.23858 1 1 3.23858 1 6V16C1 18.7614 3.23858 21 6 21H16C18.7614 21 21 18.7614 21 16V6C21 3.23858 18.7614 1 16 1Z" stroke="#FF4948" stroke-width="2" stroke-linecap="round" stroke-linejoin="round"/>
        <path id="Vector_2" d="M14.9997 10.3703C15.1231 11.2025 14.981 12.0525 14.5935 12.7993C14.206 13.5461 13.5929 14.1517 12.8413 14.53C12.0898 14.9082 11.2382 15.0399 10.4075 14.9062C9.57683 14.7726 8.80947 14.3804 8.21455 13.7855C7.61962 13.1905 7.22744 12.4232 7.09377 11.5925C6.96011 10.7619 7.09177 9.9102 7.47003 9.15868C7.84829 8.40716 8.45389 7.79404 9.20069 7.40654C9.94749 7.01904 10.7975 6.87689 11.6297 7.0003C12.4786 7.12619 13.2646 7.52176 13.8714 8.12861C14.4782 8.73545 14.8738 9.52138 14.9997 10.3703Z" stroke="#FF4948" stroke-width="2" stroke-linecap="round" stroke-linejoin="round"/>
        <path id="Vector_3" d="M16.5 5.5H16.51" stroke="#FF4948" stroke-width="2" stroke-linecap="round" stroke-linejoin="round"/>
    </g>

    <g id='twitter'>
        <path id="Vector" d="M23 1.01006C22.0424 1.68553 20.9821 2.20217 19.86 2.54006C19.2577 1.84757 18.4573 1.35675 17.567 1.13398C16.6767 0.911216 15.7395 0.967251 14.8821 1.29451C14.0247 1.62177 13.2884 2.20446 12.773 2.96377C12.2575 3.72309 11.9877 4.62239 12 5.54006V6.54006C10.2426 6.58562 8.50127 6.19587 6.93101 5.4055C5.36074 4.61513 4.01032 3.44869 3 2.01006C3 2.01006 -1 11.0101 8 15.0101C5.94053 16.408 3.48716 17.109 1 17.0101C10 22.0101 21 17.0101 21 5.51006C20.9991 5.23151 20.9723 4.95365 20.92 4.68006C21.9406 3.67355 22.6608 2.40277 23 1.01006V1.01006Z" stroke="#FF4948" stroke-width="2" stroke-linecap="round" stroke-linejoin="round"/>
    </g>

    <g id='facebook'>
        <path id="Vector" d="M12 1H9C7.67392 1 6.40215 1.52678 5.46447 2.46447C4.52678 3.40215 4 4.67392 4 6V9H1V13H4V21H8V13H11L12 9H8V6C8 5.73478 8.10536 5.48043 8.29289 5.29289C8.48043 5.10536 8.73478 5 9 5H12V1Z" stroke="#FF4948" stroke-width="2" stroke-linecap="round" stroke-linejoin="round"/>
    </g>
</svg>
