<svg width="33" height="33" viewBox="0 0 33 33" fill="none" xmlns="http://www.w3.org/2000/svg">
<g clip-path="url(#clip0_11_46825)">
<path d="M6.38761 8.5516C6.13592 8.29991 5.72787 8.29985 5.47612 8.55147C3.96618 10.0611 3.13454 12.0667 3.13454 14.1988C3.13454 16.331 3.96611 18.3366 5.47612 19.8462C5.602 19.972 5.76687 20.0349 5.9318 20.0349C6.0968 20.0349 6.2618 19.9719 6.38761 19.846C6.6393 19.5943 6.63924 19.1862 6.38755 18.9345C5.12111 17.6684 4.42366 15.9866 4.42366 14.1987C4.42366 12.411 5.12111 10.7291 6.38755 9.46303C6.63924 9.21141 6.6393 8.80335 6.38761 8.5516Z" fill="#FF4948"/>
<path d="M24.3081 11.74C23.9522 11.74 23.6635 12.0286 23.6635 12.3845V13.3756H22.2101V6.51035C22.2101 3.36478 19.6482 0.805664 16.4992 0.805664C13.3512 0.805664 10.7901 3.36478 10.7901 6.51035V13.3756H9.3367V12.3846C9.3367 12.0287 9.04814 11.7401 8.69217 11.7401C8.3362 11.7401 8.04764 12.0287 8.04764 12.3846V16.187C8.04764 19.9726 10.5525 23.1845 13.9929 24.2543V27.7327H11.7635C10.5316 27.7327 9.52942 28.7335 9.52942 29.9635V31.3162C9.52942 31.8004 9.92425 32.1943 10.4097 32.1943H13.6052C13.9611 32.1943 14.2497 31.9057 14.2497 31.5498C14.2497 31.1939 13.9611 30.9053 13.6052 30.9053H10.8185V29.9635C10.8185 29.4442 11.2425 29.0218 11.7635 29.0218H21.2367C21.7568 29.0218 22.1799 29.4443 22.1799 29.9635V30.9053H19.3933C19.0374 30.9053 18.7488 31.1939 18.7488 31.5498C18.7488 31.9057 19.0374 32.1943 19.3933 32.1943H22.5906C23.075 32.1943 23.469 31.8004 23.469 31.3162V29.9635C23.469 28.7335 22.4676 27.7327 21.2367 27.7327H19.0055V24.2544C22.4469 23.1848 24.9527 19.9728 24.9527 16.187V12.3846C24.9526 12.0286 24.664 11.74 24.3081 11.74ZM12.0791 6.51035C12.0791 4.07563 14.0619 2.09473 16.4991 2.09473C18.9374 2.09473 20.921 4.07556 20.921 6.51035V8.64046H12.0791V6.51035ZM12.0791 9.92952H20.9211V11.6105H12.0791V9.92952ZM12.0791 12.8995H20.9211V16.187C20.9211 18.6217 18.9374 20.6026 16.4992 20.6026C14.062 20.6026 12.0791 18.6217 12.0791 16.187V12.8995H12.0791ZM17.7164 27.7326H15.2819V24.5454C15.6795 24.603 16.0858 24.6334 16.4992 24.6334C16.9125 24.6334 17.3188 24.603 17.7164 24.5455V27.7326H17.7164ZM23.6635 16.187C23.6635 20.1335 20.4496 23.3443 16.4992 23.3443C12.5498 23.3443 9.3367 20.1336 9.3367 16.187V14.6647H10.7901V16.187C10.7901 19.3325 13.3512 21.8916 16.4992 21.8916C19.6482 21.8916 22.2101 19.3325 22.2101 16.187V14.6647H23.6635V16.187Z" fill="#FF4948"/>
<path d="M29.7386 6.33728C29.4868 6.08559 29.0786 6.08591 28.8271 6.33767C28.5756 6.58948 28.5758 6.9976 28.8276 7.24923C30.6869 9.10683 31.7108 11.5753 31.7108 14.1999C31.7108 16.8245 30.6869 19.2931 28.8276 21.1507C28.5758 21.4022 28.5756 21.8103 28.8272 22.0622C28.9531 22.1882 29.1181 22.2512 29.2831 22.2512C29.448 22.2512 29.6128 22.1883 29.7387 22.0626C31.8417 19.9614 32.9999 17.1691 32.9999 14.1999C32.9999 11.2308 31.8417 8.43839 29.7386 6.33728Z" fill="#FF4948"/>
<path d="M27.5228 8.55161C27.2709 8.29999 26.8629 8.30024 26.6112 8.552C26.3597 8.80382 26.3599 9.21193 26.6116 9.46356C27.8788 10.7297 28.5767 12.4114 28.5767 14.1991C28.5767 15.9869 27.8788 17.6686 26.6116 18.9348C26.3599 19.1863 26.3597 19.5944 26.6112 19.8463C26.7371 19.9723 26.9022 20.0353 27.0672 20.0353C27.2321 20.0353 27.3969 19.9724 27.5227 19.8467C29.0337 18.3371 29.8658 16.3314 29.8658 14.1992C29.8658 12.0669 29.0337 10.0612 27.5228 8.55161Z" fill="#FF4948"/>
<path d="M1.28906 14.1995C1.28906 11.5748 2.31258 9.10627 4.17102 7.2486C4.42277 6.99698 4.4229 6.58892 4.17121 6.33711C3.91952 6.08529 3.51147 6.08522 3.25972 6.33691C1.15764 8.43808 0 11.2304 0 14.1995C0 17.1686 1.15764 19.9609 3.25972 22.062C3.38553 22.1878 3.55046 22.2507 3.71534 22.2507C3.88034 22.2507 4.04534 22.1877 4.17121 22.0618C4.42284 21.81 4.42277 21.402 4.17102 21.1503C2.31258 19.2927 1.28906 16.8241 1.28906 14.1995Z" fill="#FF4948"/>
<path d="M16.499 30.9053C16.143 30.9053 15.8544 31.1939 15.8544 31.5498C15.8544 31.9057 16.143 32.1943 16.499 32.1943H16.5026C16.8585 32.1943 17.1454 31.9057 17.1454 31.5498C17.1454 31.1939 16.8549 30.9053 16.499 30.9053Z" fill="#FF4948"/>
</g>
<defs>
<clipPath id="clip0_11_46825">
<rect width="33" height="33" fill="white"/>
</clipPath>
</defs>
</svg>
